<svg width="1440" height="1024" viewBox="0 0 1440 1024" fill="none" xmlns="http://www.w3.org/2000/svg">
<path d="M3.56399 5.83364C5.3214 -9.9589 12.351 -22.242 28.1676 -29.2609M138.651 5.83364C140.408 -9.9589 147.438 -22.242 163.254 -29.2609M3.56399 125.155C5.3214 109.363 12.351 97.0795 28.1676 90.0606M138.651 125.155C140.408 109.363 147.438 97.0795 163.254 90.0606M251.407 5.83364C253.165 -9.9589 260.194 -22.242 276.011 -29.2609M386.494 5.83364C388.251 -9.9589 395.281 -22.242 411.097 -29.2609M251.407 125.155C253.165 109.363 260.194 97.0795 276.011 90.0606M386.494 125.155C388.251 109.363 395.281 97.0795 411.097 90.0606M251.407 232.407C253.165 216.614 260.194 204.331 276.011 197.312M386.494 232.407C388.251 216.614 395.281 204.331 411.097 197.312M251.407 351.728C253.165 335.935 260.194 323.652 276.011 316.633M386.494 351.728C388.251 335.935 395.281 323.652 411.097 316.633M251.407 460.014C253.165 444.221 260.194 431.938 276.011 424.919M386.494 460.014C388.251 444.221 395.281 431.938 411.097 424.919M251.407 579.335C253.165 563.543 260.194 551.26 276.011 544.241M386.494 579.335C388.251 563.543 395.281 551.26 411.097 544.241M251.407 686.587C253.165 670.794 260.194 658.511 276.011 651.492M386.494 686.587C388.251 670.794 395.281 658.511 411.097 651.492M251.407 805.908C253.165 790.116 260.194 777.833 276.011 770.814M386.494 805.908C388.251 790.116 395.281 777.833 411.097 770.814M499.25 5.83364C501.008 -9.9589 508.037 -22.242 523.854 -29.2609M634.337 5.83364C636.094 -9.9589 643.124 -22.242 658.94 -29.2609M499.25 125.155C501.008 109.363 508.037 97.0795 523.854 90.0606M634.337 125.155C636.094 109.363 643.124 97.0795 658.94 90.0606M750.231 2.72991C751.988 -13.0626 759.018 -25.3457 774.834 -32.3646M885.317 2.72991C887.075 -13.0626 894.104 -25.3457 909.921 -32.3646M750.231 122.051C751.988 106.259 759.018 93.9758 774.834 86.9569M885.317 122.051C887.075 106.259 894.104 93.9758 909.921 86.9569M1001.21 0.660746C1002.97 -15.1318 1010 -27.4149 1025.81 -34.4338M1136.3 0.660746C1138.06 -15.1318 1145.08 -27.4149 1160.9 -34.4338M1001.21 119.982C1002.97 104.19 1010 91.9066 1025.81 84.8877M1136.3 119.982C1138.06 104.19 1145.08 91.9066 1160.9 84.8877M1252.19 0.660746C1253.95 -15.1318 1260.98 -27.4149 1276.8 -34.4338M1387.28 0.660746C1389.04 -15.1318 1396.06 -27.4149 1411.88 -34.4338M1252.19 119.982C1253.95 104.19 1260.98 91.9066 1276.8 84.8877M1387.28 119.982C1389.04 104.19 1396.06 91.9066 1411.88 84.8877M3.56399 232.407C5.3214 216.614 12.351 204.331 28.1676 197.312M138.651 232.407C140.408 216.614 147.438 204.331 163.254 197.312M3.56399 351.728C5.3214 335.935 12.351 323.652 28.1676 316.633M138.651 351.728C140.408 335.935 147.438 323.652 163.254 316.633M3.56399 459.324C5.3214 443.44 12.351 431.086 28.1676 424.027M138.651 459.324C140.408 443.44 147.438 431.086 163.254 424.027M3.56399 579.335C5.3214 563.452 12.351 551.098 28.1676 544.038M138.651 579.335C140.408 563.452 147.438 551.098 163.254 544.038M3.56399 686.587C5.3214 670.794 12.351 658.511 28.1676 651.492M138.651 686.587C140.408 670.794 147.438 658.511 163.254 651.492M3.56399 805.908C5.3214 790.116 12.351 777.833 28.1676 770.814M138.651 805.908C140.408 790.116 147.438 777.833 163.254 770.814M3.56399 928.678C5.3214 912.886 12.351 900.603 28.1676 893.584M138.651 928.678C140.408 912.886 147.438 900.603 163.254 893.584M3.56399 1048C5.3214 1032.21 12.351 1019.92 28.1676 1012.91M138.651 1048C140.408 1032.21 147.438 1019.92 163.254 1012.91M251.407 928.678C253.165 912.886 260.194 900.603 276.011 893.584M386.494 928.678C388.251 912.886 395.281 900.603 411.097 893.584M251.407 1048C253.165 1032.21 260.194 1019.92 276.011 1012.91M386.494 1048C388.251 1032.21 395.281 1019.92 411.097 1012.91M499.25 918.333C501.008 902.54 508.037 890.257 523.854 883.238M634.337 918.333C636.094 902.54 643.124 890.257 658.94 883.238M499.25 1037.65C501.008 1021.86 508.037 1009.58 523.854 1002.56M634.337 1037.65C636.094 1021.86 643.124 1009.58 658.94 1002.56M499.25 232.407C501.008 216.614 508.037 204.331 523.854 197.312M634.337 232.407C636.094 216.614 643.124 204.331 658.94 197.312M499.25 351.728C501.008 335.935 508.037 323.652 523.854 316.633M634.337 351.728C636.094 335.935 643.124 323.652 658.94 316.633M499.25 462.083C501.008 446.291 508.037 434.008 523.854 426.989M634.337 462.083C636.094 446.291 643.124 434.008 658.94 426.989M499.25 581.405C501.008 565.612 508.037 553.329 523.854 546.31M634.337 581.405C636.094 565.612 643.124 553.329 658.94 546.31M499.25 686.587C501.008 670.794 508.037 658.511 523.854 651.492M634.337 686.587C636.094 670.794 643.124 658.511 658.94 651.492M499.25 805.908C501.008 790.116 508.037 777.833 523.854 770.814M634.337 805.908C636.094 790.116 643.124 777.833 658.94 770.814M743.956 232.407C745.714 216.614 752.743 204.331 768.56 197.312M879.043 232.407C880.8 216.614 887.83 204.331 903.646 197.312M743.956 351.728C745.714 335.935 752.743 323.652 768.56 316.633M879.043 351.728C880.8 335.935 887.83 323.652 903.646 316.633M743.956 460.014C745.714 444.221 752.743 431.938 768.56 424.919M879.043 460.014C880.8 444.221 887.83 431.938 903.646 424.919M743.956 579.335C745.714 563.543 752.743 551.26 768.56 544.241M879.043 579.335C880.8 563.543 887.83 551.26 903.646 544.241M743.956 686.587C745.714 670.794 752.743 658.511 768.56 651.492M879.043 686.587C880.8 670.794 887.83 658.511 903.646 651.492M743.956 805.908C745.714 790.116 752.743 777.833 768.56 770.814M879.043 805.908C880.8 790.116 887.83 777.833 903.646 770.814M743.956 928.678C745.714 912.886 752.743 900.603 768.56 893.584M879.043 928.678C880.8 912.886 887.83 900.603 903.646 893.584M743.956 1048C745.714 1032.21 752.743 1019.92 768.56 1012.91M879.043 1048C880.8 1032.21 887.83 1019.92 903.646 1012.91M991.799 918.333C993.557 902.54 1000.59 890.257 1016.4 883.238M1126.89 918.333C1128.64 902.54 1135.67 890.257 1151.49 883.238M991.799 1037.65C993.557 1021.86 1000.59 1009.58 1016.4 1002.56M1126.89 1037.65C1128.64 1021.86 1135.67 1009.58 1151.49 1002.56M991.799 232.407C993.557 216.614 1000.59 204.331 1016.4 197.312M1126.89 232.407C1128.64 216.614 1135.67 204.331 1151.49 197.312M991.799 351.728C993.557 335.935 1000.59 323.652 1016.4 316.633M1126.89 351.728C1128.64 335.935 1135.67 323.652 1151.49 316.633M1237.55 461.049C1239.31 445.256 1246.34 432.973 1262.15 425.954M1372.64 461.049C1374.39 445.256 1381.42 432.973 1397.24 425.954M1237.55 580.37C1239.31 564.578 1246.34 552.294 1262.15 545.276M1372.64 580.37C1374.39 564.578 1381.42 552.294 1397.24 545.276M1237.55 687.621C1239.31 671.829 1246.34 659.546 1262.15 652.527M1372.64 687.621C1374.39 671.829 1381.42 659.546 1397.24 652.527M1237.55 806.943C1239.31 791.15 1246.34 778.867 1262.15 771.848M1372.64 806.943C1374.39 791.15 1381.42 778.867 1397.24 771.848M1237.55 230.337C1239.31 214.545 1246.34 202.262 1262.15 195.243M1372.64 230.337C1374.39 214.545 1381.42 202.262 1397.24 195.243M1237.55 349.659C1239.31 333.866 1246.34 321.583 1262.15 314.564M1372.64 349.659C1374.39 333.866 1381.42 321.583 1397.24 314.564M991.799 462.083C993.557 446.291 1000.59 434.008 1016.4 426.989M1126.89 462.083C1128.64 446.291 1135.67 434.008 1151.49 426.989M991.799 581.405C993.557 565.612 1000.59 553.329 1016.4 546.31M1126.89 581.405C1128.64 565.612 1135.67 553.329 1151.49 546.31M991.799 686.587C993.557 670.794 1000.59 658.511 1016.4 651.492M1126.89 686.587C1128.64 670.794 1135.67 658.511 1151.49 651.492M991.799 805.908C993.557 790.116 1000.59 777.833 1016.4 770.814M1126.89 805.908C1128.64 790.116 1135.67 777.833 1151.49 770.814M1227.09 909.021C1228.85 893.229 1235.88 880.946 1251.7 873.927M1362.18 909.021C1363.94 893.229 1370.97 880.946 1386.78 873.927M1227.09 1028.34C1228.85 1012.55 1235.88 1000.27 1251.7 993.248M1362.18 1028.34C1363.94 1012.55 1370.97 1000.27 1386.78 993.248M17.6232 -4.69476C39.4783 -4.69476 54.5286 -16.2338 56.286 -46.8082V-53.8271H42.1776C10.5444 -53.8271 0.0492072 -39.7893 0 -22.242C0 -18.7326 0 -11.7137 7.02961 -4.69476H17.6232ZM152.71 -4.69476C174.565 -4.69476 189.615 -16.2338 191.373 -46.8082V-53.8271H177.264C145.631 -53.8271 135.136 -39.7893 135.087 -22.242C135.087 -18.7326 135.087 -11.7137 142.116 -4.69476H152.71ZM17.6232 114.627C39.4783 114.627 54.5286 103.088 56.286 72.5133V65.4944H42.1776C10.5444 65.4944 0.0492072 79.5322 0 97.0795C0 100.589 0 107.608 7.02961 114.627H17.6232ZM152.71 114.627C174.565 114.627 189.615 103.088 191.373 72.5133V65.4944H177.264C145.631 65.4944 135.136 79.5322 135.087 97.0795C135.087 100.589 135.087 107.608 142.116 114.627H152.71ZM265.466 -4.69476C287.321 -4.69476 302.372 -16.2338 304.129 -46.8082V-53.8271H290.021C258.388 -53.8271 247.892 -39.7893 247.843 -22.242C247.843 -18.7326 247.843 -11.7137 254.873 -4.69476H265.466ZM400.553 -4.69476C422.408 -4.69476 437.458 -16.2338 439.216 -46.8082V-53.8271H425.107C393.474 -53.8271 382.979 -39.7893 382.93 -22.242C382.93 -18.7326 382.93 -11.7137 389.959 -4.69476H400.553ZM265.466 114.627C287.321 114.627 302.372 103.088 304.129 72.5133V65.4944H290.021C258.388 65.4944 247.892 79.5322 247.843 97.0795C247.843 100.589 247.843 107.608 254.873 114.627H265.466ZM400.553 114.627C422.408 114.627 437.458 103.088 439.216 72.5133V65.4944H425.107C393.474 65.4944 382.979 79.5322 382.93 97.0795C382.93 100.589 382.93 107.608 389.959 114.627H400.553ZM265.466 221.878C287.321 221.878 302.372 210.339 304.129 179.765V172.746H290.021C258.388 172.746 247.892 186.784 247.843 204.331C247.843 207.84 247.843 214.859 254.873 221.878H265.466ZM400.553 221.878C422.408 221.878 437.458 210.339 439.216 179.765V172.746H425.107C393.474 172.746 382.979 186.784 382.93 204.331C382.93 207.84 382.93 214.859 389.959 221.878H400.553ZM265.466 341.2C287.321 341.2 302.372 329.661 304.129 299.086V292.067H290.021C258.388 292.067 247.892 306.105 247.843 323.652C247.843 327.162 247.843 334.181 254.873 341.2H265.466ZM400.553 341.2C422.408 341.2 437.458 329.661 439.216 299.086V292.067H425.107C393.474 292.067 382.979 306.105 382.93 323.652C382.93 327.162 382.93 334.181 389.959 341.2H400.553ZM265.466 449.486C287.321 449.486 302.372 437.947 304.129 407.372V400.353H290.021C258.388 400.353 247.892 414.391 247.843 431.938C247.843 435.448 247.843 442.467 254.873 449.486H265.466ZM400.553 449.486C422.408 449.486 437.458 437.947 439.216 407.372V400.353H425.107C393.474 400.353 382.979 414.391 382.93 431.938C382.93 435.448 382.93 442.467 389.959 449.486H400.553ZM265.466 568.807C287.321 568.807 302.372 557.268 304.129 526.694V519.675H290.021C258.388 519.675 247.892 533.713 247.843 551.26C247.843 554.769 247.843 561.788 254.873 568.807H265.466ZM400.553 568.807C422.408 568.807 437.458 557.268 439.216 526.694V519.675H425.107C393.474 519.675 382.979 533.713 382.93 551.26C382.93 554.769 382.93 561.788 389.959 568.807H400.553ZM265.466 676.058C287.321 676.058 302.372 664.519 304.129 633.945V626.926H290.021C258.388 626.926 247.892 640.964 247.843 658.511C247.843 662.021 247.843 669.04 254.873 676.058H265.466ZM400.553 676.058C422.408 676.058 437.458 664.519 439.216 633.945V626.926H425.107C393.474 626.926 382.979 640.964 382.93 658.511C382.93 662.021 382.93 669.04 389.959 676.058H400.553ZM265.466 795.38C287.321 795.38 302.372 783.841 304.129 753.267V746.248H290.021C258.388 746.248 247.892 760.285 247.843 777.833C247.843 781.342 247.843 788.361 254.873 795.38H265.466ZM400.553 795.38C422.408 795.38 437.458 783.841 439.216 753.267V746.248H425.107C393.474 746.248 382.979 760.285 382.93 777.833C382.93 781.342 382.93 788.361 389.959 795.38H400.553ZM513.31 -4.69476C535.165 -4.69476 550.215 -16.2338 551.972 -46.8082V-53.8271H537.864C506.231 -53.8271 495.736 -39.7893 495.686 -22.242C495.686 -18.7326 495.686 -11.7137 502.716 -4.69476H513.31ZM648.396 -4.69476C670.251 -4.69476 685.301 -16.2338 687.059 -46.8082V-53.8271H672.95C641.317 -53.8271 630.822 -39.7893 630.773 -22.242C630.773 -18.7326 630.773 -11.7137 637.802 -4.69476H648.396ZM513.31 114.627C535.165 114.627 550.215 103.088 551.972 72.5133V65.4944H537.864C506.231 65.4944 495.736 79.5322 495.686 97.0795C495.686 100.589 495.686 107.608 502.716 114.627H513.31ZM648.396 114.627C670.251 114.627 685.301 103.088 687.059 72.5133V65.4944H672.95C641.317 65.4944 630.822 79.5322 630.773 97.0795C630.773 100.589 630.773 107.608 637.802 114.627H648.396ZM764.29 -7.79849C786.145 -7.79849 801.195 -19.3376 802.953 -49.9119V-56.9308H788.844C757.211 -56.9308 746.716 -42.893 746.667 -25.3458C746.667 -21.8363 746.667 -14.8174 753.696 -7.79849H764.29ZM899.376 -7.79849C921.231 -7.79849 936.282 -19.3376 938.039 -49.9119V-56.9308H923.931C892.298 -56.9308 881.802 -42.893 881.753 -25.3458C881.753 -21.8363 881.753 -14.8174 888.783 -7.79849H899.376ZM764.29 111.523C786.145 111.523 801.195 99.9839 802.953 69.4096V62.3907H788.844C757.211 62.3907 746.716 76.4285 746.667 93.9757C746.667 97.4852 746.667 104.504 753.696 111.523H764.29ZM899.376 111.523C921.231 111.523 936.282 99.9839 938.039 69.4096V62.3907H923.931C892.298 62.3907 881.802 76.4285 881.753 93.9757C881.753 97.4852 881.753 104.504 888.783 111.523H899.376ZM1015.27 -9.86765C1037.13 -9.86765 1052.18 -21.4067 1053.93 -51.9811V-59H1039.82C1008.19 -59 997.696 -44.9622 997.647 -27.4149C997.647 -23.9055 997.647 -16.8866 1004.68 -9.86765H1015.27ZM1150.36 -9.86765C1172.21 -9.86765 1187.26 -21.4067 1189.02 -51.9811V-59H1174.91C1143.28 -59 1132.78 -44.9622 1132.73 -27.4149C1132.73 -23.9055 1132.73 -16.8866 1139.76 -9.86765H1150.36ZM1015.27 109.454C1037.13 109.454 1052.18 97.9147 1053.93 67.3404V60.3215H1039.82C1008.19 60.3215 997.696 74.3593 997.647 91.9066C997.647 95.416 997.647 102.435 1004.68 109.454H1015.27ZM1150.36 109.454C1172.21 109.454 1187.26 97.9147 1189.02 67.3404V60.3215H1174.91C1143.28 60.3215 1132.78 74.3593 1132.73 91.9066C1132.73 95.416 1132.73 102.435 1139.76 109.454H1150.36ZM1266.25 -9.86765C1288.11 -9.86765 1303.16 -21.4067 1304.91 -51.9811V-59H1290.81C1259.17 -59 1248.68 -44.9622 1248.63 -27.4149C1248.63 -23.9055 1248.63 -16.8866 1255.66 -9.86765H1266.25ZM1401.34 -9.86765C1423.19 -9.86765 1438.24 -21.4067 1440 -51.9811V-59H1425.89C1394.26 -59 1383.76 -44.9622 1383.71 -27.4149C1383.71 -23.9055 1383.71 -16.8866 1390.74 -9.86765H1401.34ZM1266.25 109.454C1288.11 109.454 1303.16 97.9147 1304.91 67.3404V60.3215H1290.81C1259.17 60.3215 1248.68 74.3593 1248.63 91.9066C1248.63 95.416 1248.63 102.435 1255.66 109.454H1266.25ZM1401.34 109.454C1423.19 109.454 1438.24 97.9147 1440 67.3404V60.3215H1425.89C1394.26 60.3215 1383.76 74.3593 1383.71 91.9066C1383.71 95.416 1383.71 102.435 1390.74 109.454H1401.34ZM17.6232 221.878C39.4783 221.878 54.5286 210.339 56.286 179.765V172.746H42.1776C10.5444 172.746 0.0492072 186.784 0 204.331C0 207.84 0 214.859 7.02961 221.878H17.6232ZM152.71 221.878C174.565 221.878 189.615 210.339 191.373 179.765V172.746H177.264C145.631 172.746 135.136 186.784 135.087 204.331C135.087 207.84 135.087 214.859 142.116 221.878H152.71ZM17.6232 341.2C39.4783 341.2 54.5286 329.661 56.286 299.086V292.067H42.1776C10.5444 292.067 0.0492072 306.105 0 323.652C0 327.162 0 334.181 7.02961 341.2H17.6232ZM152.71 341.2C174.565 341.2 189.615 329.661 191.373 299.086V292.067H177.264C145.631 292.067 135.136 306.105 135.087 323.652C135.087 327.162 135.087 334.181 142.116 341.2H152.71ZM17.6232 448.735C39.4783 448.735 54.5286 437.129 56.286 406.378V399.319H42.1776C10.5444 399.319 0.0492072 413.438 0 431.086C0 434.616 0 441.676 7.02961 448.735H17.6232ZM152.71 448.735C174.565 448.735 189.615 437.129 191.373 406.378V399.319H177.264C145.631 399.319 135.136 413.438 135.087 431.086C135.087 434.616 135.087 441.676 142.116 448.735H152.71ZM17.6232 568.746C39.4783 568.746 54.5286 557.14 56.286 526.389V519.33H42.1776C10.5444 519.33 0.0492072 533.449 0 551.098C0 554.627 0 561.687 7.02961 568.746H17.6232ZM152.71 568.746C174.565 568.746 189.615 557.14 191.373 526.389V519.33H177.264C145.631 519.33 135.136 533.449 135.087 551.098C135.087 554.627 135.087 561.687 142.116 568.746H152.71ZM17.6232 676.058C39.4783 676.058 54.5286 664.519 56.286 633.945V626.926H42.1776C10.5444 626.926 0.0492072 640.964 0 658.511C0 662.021 0 669.04 7.02961 676.058H17.6232ZM152.71 676.058C174.565 676.058 189.615 664.519 191.373 633.945V626.926H177.264C145.631 626.926 135.136 640.964 135.087 658.511C135.087 662.021 135.087 669.04 142.116 676.058H152.71ZM17.6232 795.38C39.4783 795.38 54.5286 783.841 56.286 753.267V746.248H42.1776C10.5444 746.248 0.0492072 760.285 0 777.833C0 781.342 0 788.361 7.02961 795.38H17.6232ZM152.71 795.38C174.565 795.38 189.615 783.841 191.373 753.267V746.248H177.264C145.631 746.248 135.136 760.285 135.087 777.833C135.087 781.342 135.087 788.361 142.116 795.38H152.71ZM17.6232 918.15C39.4783 918.15 54.5286 906.611 56.286 876.037V869.018H42.1776C10.5444 869.018 0.0492072 883.056 0 900.603C0 904.112 0 911.131 7.02961 918.15H17.6232ZM152.71 918.15C174.565 918.15 189.615 906.611 191.373 876.037V869.018H177.264C145.631 869.018 135.136 883.056 135.087 900.603C135.087 904.112 135.087 911.131 142.116 918.15H152.71ZM17.6232 1037.47C39.4783 1037.47 54.5286 1025.93 56.286 995.358V988.339H42.1776C10.5444 988.339 0.0492072 1002.38 0 1019.92C0 1023.43 0 1030.45 7.02961 1037.47H17.6232ZM152.71 1037.47C174.565 1037.47 189.615 1025.93 191.373 995.358V988.339H177.264C145.631 988.339 135.136 1002.38 135.087 1019.92C135.087 1023.43 135.087 1030.45 142.116 1037.47H152.71ZM265.466 918.15C287.321 918.15 302.372 906.611 304.129 876.037V869.018H290.021C258.388 869.018 247.892 883.056 247.843 900.603C247.843 904.112 247.843 911.131 254.873 918.15H265.466ZM400.553 918.15C422.408 918.15 437.458 906.611 439.216 876.037V869.018H425.107C393.474 869.018 382.979 883.056 382.93 900.603C382.93 904.112 382.93 911.131 389.959 918.15H400.553ZM265.466 1037.47C287.321 1037.47 302.372 1025.93 304.129 995.358V988.339H290.021C258.388 988.339 247.892 1002.38 247.843 1019.92C247.843 1023.43 247.843 1030.45 254.873 1037.47H265.466ZM400.553 1037.47C422.408 1037.47 437.458 1025.93 439.216 995.358V988.339H425.107C393.474 988.339 382.979 1002.38 382.93 1019.92C382.93 1023.43 382.93 1030.45 389.959 1037.47H400.553ZM513.31 907.804C535.165 907.804 550.215 896.265 551.972 865.691V858.672H537.864C506.231 858.672 495.736 872.71 495.686 890.257C495.686 893.766 495.686 900.785 502.716 907.804H513.31ZM648.396 907.804C670.251 907.804 685.301 896.265 687.059 865.691V858.672H672.95C641.317 858.672 630.822 872.71 630.773 890.257C630.773 893.766 630.773 900.785 637.802 907.804H648.396ZM513.31 1027.13C535.165 1027.13 550.215 1015.59 551.972 985.012V977.993H537.864C506.231 977.993 495.736 992.031 495.686 1009.58C495.686 1013.09 495.686 1020.11 502.716 1027.13H513.31ZM648.396 1027.13C670.251 1027.13 685.301 1015.59 687.059 985.012V977.993H672.95C641.317 977.993 630.822 992.031 630.773 1009.58C630.773 1013.09 630.773 1020.11 637.802 1027.13H648.396ZM513.31 221.878C535.165 221.878 550.215 210.339 551.972 179.765V172.746H537.864C506.231 172.746 495.736 186.784 495.686 204.331C495.686 207.84 495.686 214.859 502.716 221.878H513.31ZM648.396 221.878C670.251 221.878 685.301 210.339 687.059 179.765V172.746H672.95C641.317 172.746 630.822 186.784 630.773 204.331C630.773 207.84 630.773 214.859 637.802 221.878H648.396ZM513.31 341.2C535.165 341.2 550.215 329.661 551.972 299.086V292.067H537.864C506.231 292.067 495.736 306.105 495.686 323.652C495.686 327.162 495.686 334.181 502.716 341.2H513.31ZM648.396 341.2C670.251 341.2 685.301 329.661 687.059 299.086V292.067H672.95C641.317 292.067 630.822 306.105 630.773 323.652C630.773 327.162 630.773 334.181 637.802 341.2H648.396ZM513.31 451.555C535.165 451.555 550.215 440.016 551.972 409.441V402.422H537.864C506.231 402.422 495.736 416.46 495.686 434.007C495.686 437.517 495.686 444.536 502.716 451.555H513.31ZM648.396 451.555C670.251 451.555 685.301 440.016 687.059 409.441V402.422H672.95C641.317 402.422 630.822 416.46 630.773 434.007C630.773 437.517 630.773 444.536 637.802 451.555H648.396ZM513.31 570.876C535.165 570.876 550.215 559.337 551.972 528.763V521.744H537.864C506.231 521.744 495.736 535.782 495.686 553.329C495.686 556.838 495.686 563.857 502.716 570.876H513.31ZM648.396 570.876C670.251 570.876 685.301 559.337 687.059 528.763V521.744H672.95C641.317 521.744 630.822 535.782 630.773 553.329C630.773 556.838 630.773 563.857 637.802 570.876H648.396ZM513.31 676.058C535.165 676.058 550.215 664.519 551.972 633.945V626.926H537.864C506.231 626.926 495.736 640.964 495.686 658.511C495.686 662.021 495.686 669.04 502.716 676.058H513.31ZM648.396 676.058C670.251 676.058 685.301 664.519 687.059 633.945V626.926H672.95C641.317 626.926 630.822 640.964 630.773 658.511C630.773 662.021 630.773 669.04 637.802 676.058H648.396ZM513.31 795.38C535.165 795.38 550.215 783.841 551.972 753.267V746.248H537.864C506.231 746.248 495.736 760.285 495.686 777.833C495.686 781.342 495.686 788.361 502.716 795.38H513.31ZM648.396 795.38C670.251 795.38 685.301 783.841 687.059 753.267V746.248H672.95C641.317 746.248 630.822 760.285 630.773 777.833C630.773 781.342 630.773 788.361 637.802 795.38H648.396ZM758.015 221.878C779.87 221.878 794.921 210.339 796.678 179.765V172.746H782.57C750.937 172.746 740.441 186.784 740.392 204.331C740.392 207.84 740.392 214.859 747.422 221.878H758.015ZM893.102 221.878C914.957 221.878 930.007 210.339 931.765 179.765V172.746H917.656C886.023 172.746 875.528 186.784 875.479 204.331C875.479 207.84 875.479 214.859 882.508 221.878H893.102ZM758.015 341.2C779.87 341.2 794.921 329.661 796.678 299.086V292.067H782.57C750.937 292.067 740.441 306.105 740.392 323.652C740.392 327.162 740.392 334.181 747.422 341.2H758.015ZM893.102 341.2C914.957 341.2 930.007 329.661 931.765 299.086V292.067H917.656C886.023 292.067 875.528 306.105 875.479 323.652C875.479 327.162 875.479 334.181 882.508 341.2H893.102ZM758.015 449.486C779.87 449.486 794.921 437.947 796.678 407.372V400.353H782.57C750.937 400.353 740.441 414.391 740.392 431.938C740.392 435.448 740.392 442.467 747.422 449.486H758.015ZM893.102 449.486C914.957 449.486 930.007 437.947 931.765 407.372V400.353H917.656C886.023 400.353 875.528 414.391 875.479 431.938C875.479 435.448 875.479 442.467 882.508 449.486H893.102ZM758.015 568.807C779.87 568.807 794.921 557.268 796.678 526.694V519.675H782.57C750.937 519.675 740.441 533.713 740.392 551.26C740.392 554.769 740.392 561.788 747.422 568.807H758.015ZM893.102 568.807C914.957 568.807 930.007 557.268 931.765 526.694V519.675H917.656C886.023 519.675 875.528 533.713 875.479 551.26C875.479 554.769 875.479 561.788 882.508 568.807H893.102ZM758.015 676.058C779.87 676.058 794.921 664.519 796.678 633.945V626.926H782.57C750.937 626.926 740.441 640.964 740.392 658.511C740.392 662.021 740.392 669.04 747.422 676.058H758.015ZM893.102 676.058C914.957 676.058 930.007 664.519 931.765 633.945V626.926H917.656C886.023 626.926 875.528 640.964 875.479 658.511C875.479 662.021 875.479 669.04 882.508 676.058H893.102ZM758.015 795.38C779.87 795.38 794.921 783.841 796.678 753.267V746.248H782.57C750.937 746.248 740.441 760.285 740.392 777.833C740.392 781.342 740.392 788.361 747.422 795.38H758.015ZM893.102 795.38C914.957 795.38 930.007 783.841 931.765 753.267V746.248H917.656C886.023 746.248 875.528 760.285 875.479 777.833C875.479 781.342 875.479 788.361 882.508 795.38H893.102ZM758.015 918.15C779.87 918.15 794.921 906.611 796.678 876.037V869.018H782.57C750.937 869.018 740.441 883.056 740.392 900.603C740.392 904.112 740.392 911.131 747.422 918.15H758.015ZM893.102 918.15C914.957 918.15 930.007 906.611 931.765 876.037V869.018H917.656C886.023 869.018 875.528 883.056 875.479 900.603C875.479 904.112 875.479 911.131 882.508 918.15H893.102ZM758.015 1037.47C779.87 1037.47 794.921 1025.93 796.678 995.358V988.339H782.57C750.937 988.339 740.441 1002.38 740.392 1019.92C740.392 1023.43 740.392 1030.45 747.422 1037.47H758.015ZM893.102 1037.47C914.957 1037.47 930.007 1025.93 931.765 995.358V988.339H917.656C886.023 988.339 875.528 1002.38 875.479 1019.92C875.479 1023.43 875.479 1030.45 882.508 1037.47H893.102ZM1005.86 907.804C1027.71 907.804 1042.76 896.265 1044.52 865.691V858.672H1030.41C998.78 858.672 988.285 872.71 988.235 890.257C988.235 893.766 988.235 900.785 995.265 907.804H1005.86ZM1140.95 907.804C1162.8 907.804 1177.85 896.265 1179.61 865.691V858.672H1165.5C1133.87 858.672 1123.37 872.71 1123.32 890.257C1123.32 893.766 1123.32 900.785 1130.35 907.804H1140.95ZM1005.86 1027.13C1027.71 1027.13 1042.76 1015.59 1044.52 985.012V977.993H1030.41C998.78 977.993 988.285 992.031 988.235 1009.58C988.235 1013.09 988.235 1020.11 995.265 1027.13H1005.86ZM1140.95 1027.13C1162.8 1027.13 1177.85 1015.59 1179.61 985.012V977.993H1165.5C1133.87 977.993 1123.37 992.031 1123.32 1009.58C1123.32 1013.09 1123.32 1020.11 1130.35 1027.13H1140.95ZM1005.86 221.878C1027.71 221.878 1042.76 210.339 1044.52 179.765V172.746H1030.41C998.78 172.746 988.285 186.784 988.235 204.331C988.235 207.84 988.235 214.859 995.265 221.878H1005.86ZM1140.95 221.878C1162.8 221.878 1177.85 210.339 1179.61 179.765V172.746H1165.5C1133.87 172.746 1123.37 186.784 1123.32 204.331C1123.32 207.84 1123.32 214.859 1130.35 221.878H1140.95ZM1005.86 341.2C1027.71 341.2 1042.76 329.661 1044.52 299.086V292.067H1030.41C998.78 292.067 988.285 306.105 988.235 323.652C988.235 327.162 988.235 334.181 995.265 341.2H1005.86ZM1140.95 341.2C1162.8 341.2 1177.85 329.661 1179.61 299.086V292.067H1165.5C1133.87 292.067 1123.37 306.105 1123.32 323.652C1123.32 327.162 1123.32 334.181 1130.35 341.2H1140.95ZM1251.61 450.52C1273.47 450.52 1288.52 438.981 1290.27 408.407V401.388H1276.16C1244.53 401.388 1234.04 415.426 1233.99 432.973C1233.99 436.482 1233.99 443.501 1241.02 450.52H1251.61ZM1386.7 450.52C1408.55 450.52 1423.6 438.981 1425.36 408.407V401.388H1411.25C1379.62 401.388 1369.12 415.426 1369.07 432.973C1369.07 436.482 1369.07 443.501 1376.1 450.52H1386.7ZM1251.61 569.842C1273.47 569.842 1288.52 558.303 1290.27 527.728V520.709H1276.16C1244.53 520.709 1234.04 534.747 1233.99 552.294C1233.99 555.804 1233.99 562.823 1241.02 569.842H1251.61ZM1386.7 569.842C1408.55 569.842 1423.6 558.303 1425.36 527.728V520.709H1411.25C1379.62 520.709 1369.12 534.747 1369.07 552.294C1369.07 555.804 1369.07 562.823 1376.1 569.842H1386.7ZM1251.61 677.093C1273.47 677.093 1288.52 665.554 1290.27 634.98V627.961H1276.16C1244.53 627.961 1234.04 641.999 1233.99 659.546C1233.99 663.055 1233.99 670.074 1241.02 677.093H1251.61ZM1386.7 677.093C1408.55 677.093 1423.6 665.554 1425.36 634.98V627.961H1411.25C1379.62 627.961 1369.12 641.999 1369.07 659.546C1369.07 663.055 1369.07 670.074 1376.1 677.093H1386.7ZM1251.61 796.415C1273.47 796.415 1288.52 784.875 1290.27 754.301V747.282H1276.16C1244.53 747.282 1234.04 761.32 1233.99 778.867C1233.99 782.377 1233.99 789.396 1241.02 796.415H1251.61ZM1386.7 796.415C1408.55 796.415 1423.6 784.875 1425.36 754.301V747.282H1411.25C1379.62 747.282 1369.12 761.32 1369.07 778.867C1369.07 782.377 1369.07 789.396 1376.1 796.415H1386.7ZM1251.61 219.809C1273.47 219.809 1288.52 208.27 1290.27 177.696V170.677H1276.16C1244.53 170.677 1234.04 184.714 1233.99 202.262C1233.99 205.771 1233.99 212.79 1241.02 219.809H1251.61ZM1386.7 219.809C1408.55 219.809 1423.6 208.27 1425.36 177.696V170.677H1411.25C1379.62 170.677 1369.12 184.714 1369.07 202.262C1369.07 205.771 1369.07 212.79 1376.1 219.809H1386.7ZM1251.61 339.13C1273.47 339.13 1288.52 327.591 1290.27 297.017V289.998H1276.16C1244.53 289.998 1234.04 304.036 1233.99 321.583C1233.99 325.093 1233.99 332.112 1241.02 339.13H1251.61ZM1386.7 339.13C1408.55 339.13 1423.6 327.591 1425.36 297.017V289.998H1411.25C1379.62 289.998 1369.12 304.036 1369.07 321.583C1369.07 325.093 1369.07 332.112 1376.1 339.13H1386.7ZM1005.86 451.555C1027.71 451.555 1042.76 440.016 1044.52 409.441V402.422H1030.41C998.78 402.422 988.285 416.46 988.235 434.007C988.235 437.517 988.235 444.536 995.265 451.555H1005.86ZM1140.95 451.555C1162.8 451.555 1177.85 440.016 1179.61 409.441V402.422H1165.5C1133.87 402.422 1123.37 416.46 1123.32 434.007C1123.32 437.517 1123.32 444.536 1130.35 451.555H1140.95ZM1005.86 570.876C1027.71 570.876 1042.76 559.337 1044.52 528.763V521.744H1030.41C998.78 521.744 988.285 535.782 988.235 553.329C988.235 556.838 988.235 563.857 995.265 570.876H1005.86ZM1140.95 570.876C1162.8 570.876 1177.85 559.337 1179.61 528.763V521.744H1165.5C1133.87 521.744 1123.37 535.782 1123.32 553.329C1123.32 556.838 1123.32 563.857 1130.35 570.876H1140.95ZM1005.86 676.058C1027.71 676.058 1042.76 664.519 1044.52 633.945V626.926H1030.41C998.78 626.926 988.285 640.964 988.235 658.511C988.235 662.021 988.235 669.04 995.265 676.058H1005.86ZM1140.95 676.058C1162.8 676.058 1177.85 664.519 1179.61 633.945V626.926H1165.5C1133.87 626.926 1123.37 640.964 1123.32 658.511C1123.32 662.021 1123.32 669.04 1130.35 676.058H1140.95ZM1005.86 795.38C1027.71 795.38 1042.76 783.841 1044.52 753.267V746.248H1030.41C998.78 746.248 988.285 760.285 988.235 777.833C988.235 781.342 988.235 788.361 995.265 795.38H1005.86ZM1140.95 795.38C1162.8 795.38 1177.85 783.841 1179.61 753.267V746.248H1165.5C1133.87 746.248 1123.37 760.285 1123.32 777.833C1123.32 781.342 1123.32 788.361 1130.35 795.38H1140.95ZM1241.15 898.493C1263.01 898.493 1278.06 886.954 1279.82 856.38V849.361H1265.71C1234.07 849.361 1223.58 863.399 1223.53 880.946C1223.53 884.455 1223.53 891.474 1230.56 898.493H1241.15ZM1376.24 898.493C1398.09 898.493 1413.14 886.954 1414.9 856.38V849.361H1400.79C1369.16 849.361 1358.67 863.399 1358.62 880.946C1358.62 884.455 1358.62 891.474 1365.65 898.493H1376.24ZM1241.15 1017.81C1263.01 1017.81 1278.06 1006.28 1279.82 975.701V968.682H1265.71C1234.07 968.682 1223.58 982.72 1223.53 1000.27C1223.53 1003.78 1223.53 1010.8 1230.56 1017.81H1241.15ZM1376.24 1017.81C1398.09 1017.81 1413.14 1006.28 1414.9 975.701V968.682H1400.79C1369.16 968.682 1358.67 982.72 1358.62 1000.27C1358.62 1003.78 1358.62 1010.8 1365.65 1017.81H1376.24Z" stroke="white" stroke-opacity="0.08" stroke-width="2" stroke-linecap="round" stroke-linejoin="round"/>
</svg>
